<?xml version="1.0" standalone="no"?>
<!DOCTYPE svg PUBLIC "-//W3C//DTD SVG 20010904//EN"
 "http://www.w3.org/TR/2001/REC-SVG-20010904/DTD/svg10.dtd">
<svg version="1.0" xmlns="http://www.w3.org/2000/svg"
 width="1600.000000pt" height="1600.000000pt" viewBox="0 0 1600.000000 1600.000000"
 preserveAspectRatio="xMidYMid meet">
<metadata>
Created by potrace 1.14, written by Peter Selinger 2001-2017
</metadata>
<g transform="translate(0.000000,1600.000000) scale(0.100000,-0.100000)"
fill="#000000" stroke="none">
<path d="M5610 15705 l0 -55 -115 0 -115 0 0 -60 0 -60 -60 0 -60 0 0 -55 0
-55 -60 0 -60 0 0 -60 0 -60 -55 0 -55 0 0 -60 0 -60 -60 0 -60 0 0 -55 0 -55
-60 0 -60 0 0 -60 0 -60 -115 0 -115 0 0 -55 0 -55 -60 0 -60 0 0 -60 0 -60
-55 0 -55 0 0 -60 0 -60 -60 0 -60 0 0 -55 0 -55 -60 0 -60 0 0 -60 0 -60
-115 0 -115 0 0 -55 0 -55 -60 0 -60 0 0 -60 0 -60 -55 0 -55 0 0 -60 0 -60
-60 0 -60 0 0 -55 0 -55 -60 0 -60 0 0 -60 0 -60 -175 0 -175 0 0 -55 0 -55
-60 0 -60 0 0 -5800 0 -5800 60 0 60 0 0 -55 0 -55 175 0 175 0 0 -60 0 -60
120 0 120 0 0 -60 0 -60 175 0 175 0 0 -55 0 -55 175 0 175 0 0 -60 0 -60 175
0 175 0 0 -55 0 -55 115 0 115 0 0 -60 0 -60 175 0 175 0 0 -60 0 -60 175 0
175 0 0 -55 0 -55 115 0 115 0 0 -60 0 -60 175 0 175 0 0 -55 0 -55 180 0 180
0 0 -60 0 -60 175 0 175 0 0 -60 0 -60 115 0 115 0 0 -55 0 -55 175 0 175 0 0
-60 0 -60 175 0 175 0 0 -55 0 -55 175 0 175 0 0 55 0 55 175 0 175 0 0 60 0
60 235 0 235 0 0 55 0 55 175 0 175 0 0 60 0 60 115 0 115 0 0 60 0 60 175 0
175 0 0 55 0 55 175 0 175 0 0 60 0 60 175 0 175 0 0 55 0 55 175 0 175 0 0
60 0 60 175 0 175 0 0 60 0 60 175 0 175 0 0 55 0 55 175 0 175 0 0 60 0 60
175 0 175 0 0 55 0 55 120 0 120 0 0 120 0 120 175 0 175 0 0 55 0 55 60 0 60
0 0 5800 0 5800 -60 0 -60 0 0 55 0 55 -235 0 -235 0 0 60 0 60 -175 0 -175 0
0 55 0 55 -115 0 -115 0 0 60 0 60 -175 0 -175 0 0 60 0 60 -120 0 -120 0 0
55 0 55 -175 0 -175 0 0 60 0 60 -175 0 -175 0 0 55 0 55 -55 0 -55 0 0 -55 0
-55 -120 0 -120 0 0 55 0 55 -175 0 -175 0 0 60 0 60 -235 0 -235 0 0 60 0 60
-230 0 -230 0 0 55 0 55 -235 0 -235 0 0 60 0 60 -175 0 -175 0 0 55 0 55
-235 0 -235 0 0 60 0 60 -230 0 -230 0 0 60 0 60 -235 0 -235 0 0 55 0 55
-235 0 -235 0 0 60 0 60 -175 0 -175 0 0 55 0 55 -175 0 -175 0 0 -55z m230
-115 l0 -60 235 0 235 0 0 -55 0 -55 235 0 235 0 0 -60 0 -60 235 0 235 0 0
-60 0 -60 175 0 175 0 0 -55 0 -55 230 0 230 0 0 -60 0 -60 235 0 235 0 0 -55
0 -55 235 0 235 0 0 -60 0 -60 230 0 230 0 0 -60 0 -60 235 0 235 0 0 -55 0
-55 175 0 175 0 0 -60 0 -60 -55 0 -55 0 0 -55 0 -55 -60 0 -60 0 0 -120 0
-120 -60 0 -60 0 0 -55 0 -55 -55 0 -55 0 0 -60 0 -60 -60 0 -60 0 0 -55 0
-55 -60 0 -60 0 0 -60 0 -60 -60 0 -60 0 0 -115 0 -115 -55 0 -55 0 0 -60 0
-60 -60 0 -60 0 0 -55 0 -55 -60 0 -60 0 0 -60 0 -60 -55 0 -55 0 0 -60 0 -60
-60 0 -60 0 0 -115 0 -115 -60 0 -60 0 0 -55 0 -55 -55 0 -55 0 0 -60 0 -60
-60 0 -60 0 0 -60 0 -60 -60 0 -60 0 0 -55 0 -55 -55 0 -55 0 0 -60 0 -60 -60
0 -60 0 0 -115 0 -115 -60 0 -60 0 0 -55 0 -55 -55 0 -55 0 0 55 0 55 -175 0
-175 0 0 60 0 60 -175 0 -175 0 0 55 0 55 -175 0 -175 0 0 60 0 60 -175 0
-175 0 0 55 0 55 -180 0 -180 0 0 60 0 60 -175 0 -175 0 0 60 0 60 -115 0
-115 0 0 55 0 55 -175 0 -175 0 0 60 0 60 -175 0 -175 0 0 55 0 55 -175 0
-175 0 0 60 0 60 -175 0 -175 0 0 60 0 60 -175 0 -175 0 0 55 0 55 -175 0
-175 0 0 60 0 60 -175 0 -175 0 0 115 0 115 60 0 60 0 0 60 0 60 55 0 55 0 0
55 0 55 60 0 60 0 0 60 0 60 115 0 115 0 0 55 0 55 60 0 60 0 0 60 0 60 60 0
60 0 0 60 0 60 55 0 55 0 0 55 0 55 60 0 60 0 0 60 0 60 60 0 60 0 0 55 0 55
115 0 115 0 0 60 0 60 60 0 60 0 0 60 0 60 55 0 55 0 0 55 0 55 60 0 60 0 0
60 0 60 60 0 60 0 0 55 0 55 115 0 115 0 0 60 0 60 60 0 60 0 0 60 0 60 55 0
55 0 0 55 0 55 60 0 60 0 0 60 0 60 115 0 115 0 0 -60z m6430 -4930 l0 -930
-60 0 -60 0 0 -55 0 -55 -115 0 -115 0 0 -60 0 -60 -175 0 -175 0 0 -55 0 -55
-120 0 -120 0 0 -60 0 -60 -175 0 -175 0 0 -60 0 -60 -115 0 -115 0 0 -55 0
-55 -175 0 -175 0 0 -60 0 -60 -115 0 -115 0 0 -55 0 -55 -175 0 -175 0 0 -60
0 -60 -120 0 -120 0 0 -60 0 -60 -115 0 -115 0 0 930 0 930 55 0 55 0 0 60 0
60 120 0 120 0 0 55 0 55 175 0 175 0 0 60 0 60 115 0 115 0 0 55 0 55 175 0
175 0 0 60 0 60 120 0 120 0 0 60 0 60 175 0 175 0 0 55 0 55 115 0 115 0 0
60 0 60 175 0 175 0 0 55 0 55 115 0 115 0 0 60 0 60 120 0 120 0 0 -930z"/>
<path d="M11100 10140 l0 -410 115 0 115 0 0 60 0 60 60 0 60 0 0 60 0 60 115
0 115 0 0 55 0 55 -175 0 -175 0 0 -55 0 -55 -55 0 -55 0 0 290 0 290 -60 0
-60 0 0 -410z"/>
<path d="M10520 10195 l0 -115 -60 0 -60 0 0 -55 0 -55 -60 0 -60 0 0 -60 0
-60 -115 0 -115 0 0 175 0 175 -60 0 -60 0 0 -465 0 -465 60 0 60 0 0 175 0
175 60 0 60 0 0 55 0 55 115 0 115 0 0 60 0 60 60 0 60 0 0 -175 0 -175 55 0
55 0 0 405 0 405 -55 0 -55 0 0 -115z"/>
</g>
</svg>
