<svg xmlns="http://www.w3.org/2000/svg" xmlns:xlink="http://www.w3.org/1999/xlink" width="600" height="600" viewBox="0 0 600 600">
  <defs>
    <style>
      .cls-1, .cls-2 {
        fill: #fbccff;
        stroke-width: 1px;
        fill-rule: evenodd;
      }

      .cls-1 {
        stroke: url(#linear-gradient);
      }

      .cls-2 {
        stroke: url(#linear-gradient-2);
      }
    </style>
    <linearGradient id="linear-gradient" x1="158.25" y1="555" x2="158.25" y2="300" gradientUnits="userSpaceOnUse">
      <stop offset="0"/>
      <stop offset="1" stop-color="#fff"/>
    </linearGradient>
    <linearGradient id="linear-gradient-2" x1="444.125" y1="300" x2="444.125" y2="45" xlink:href="#linear-gradient"/>
  </defs>
  <path id="nuoli_1" data-name="nuoli 1" class="cls-1" d="M38.642,548.94c26.532,26.553,97.956-40.311,139.688-82.078s46.863-51.412,46.863-51.412,3.6,17.178,3.6,46,5.621,47.8,29.74,47.8,30.915-31.655,31.543-50.51-0.9-72.075-.9-110.94S275.859,300,248.625,300s-95.8.9-132.479,0.9S83.7,328.371,83.7,335.176s4.308,35.177,35.147,35.177,60.381,1.8,60.381,1.8-43.316,41.547-64.887,63.136-41.737,39.967-61.283,59.53S12.11,522.387,38.642,548.94Z"/>
  <path id="nuoli_1-2" data-name="nuoli 1" class="cls-2" d="M563.733,51.06C537.2,24.507,465.777,91.371,424.045,133.138s-46.863,51.412-46.863,51.412-3.605-17.178-3.605-46-5.621-47.8-29.74-47.8-30.915,31.655-31.543,50.51,0.9,72.075.9,110.94S326.516,300,353.75,300s95.8-.9,132.479-0.9,32.443-27.469,32.443-34.274-4.308-35.177-35.147-35.177-60.381-1.8-60.381-1.8,43.316-41.547,64.887-63.136,41.737-39.967,61.283-59.53S590.265,77.613,563.733,51.06Z"/>
</svg>
