<svg xmlns="http://www.w3.org/2000/svg" xmlns:xlink="http://www.w3.org/1999/xlink" width="600" height="600" viewBox="0 0 600 600">
  <defs>
    <style>
      .cls-1 {
        fill: #fbccff;
        stroke-width: 1px;
        fill-rule: evenodd;
        stroke: url(#linear-gradient);
      }
    </style>
    <linearGradient id="linear-gradient" x1="300" y1="550.594" x2="300" y2="49.406" gradientUnits="userSpaceOnUse">
      <stop offset="0"/>
      <stop offset="1" stop-color="#fff"/>
    </linearGradient>
  </defs>
  <path id="nuoli_1_kopio" data-name="nuoli 1 kopio" class="cls-1" d="M275.705,305.955c-26.057-26.095-96.2,39.616-137.19,80.662S92.49,437.141,92.49,437.141s-3.54-16.881-3.54-45.206-5.52-46.978-29.208-46.978S29.38,376.065,28.763,394.594s0.885,70.832.885,109.026S42.731,550.6,69.477,550.6s94.083-.887,130.109-0.887,31.864-26.994,31.864-33.682-4.231-34.57-34.519-34.57-59.3-1.772-59.3-1.772,42.541-40.831,63.727-62.048,40.99-39.277,60.186-58.5S301.762,332.05,275.705,305.955Zm48.605-11.91c26.054,26.095,96.193-39.616,137.175-80.662s46.02-50.524,46.02-50.524,3.54,16.881,3.54,45.206,5.52,46.978,29.206,46.978,30.358-31.108,30.975-49.637-0.885-70.832-.885-109.026S557.259,49.4,530.516,49.4s-94.074.886-130.1,0.886S368.56,77.283,368.56,83.97s4.23,34.57,34.515,34.57,59.3,1.772,59.3,1.772-42.537,40.831-63.72,62.048-40.986,39.277-60.18,58.5S298.255,267.95,324.31,294.045Z"/>
</svg>
