<svg xmlns="http://www.w3.org/2000/svg" viewBox="0 0 353.71 506.67">
    <g id="Layer_2" data-name="Layer 2">
        <g id="Layer_1-2" data-name="Layer 1">
            <path fill="#fff" d="M120.31,181.24c10.11-4.75,14.73-7.6,18.67-6,6.09,2.41,5.44,13.51,4.67,20.3-3.41,30-17.19,46.76-28,73-3.84,9.3-13.41,32.24-16,62-1.35,15.44-3.79,28.76-8.67,55.42a48.1,48.1,0,0,1-7.24,18.4c-3.6,5.46-7.14,8.46-12.8,13.87-12.79,12.2-13.48,14-20.63,21.5-20.65,21.76-40.24,18.78-48,36.76-1.35,3.15-4.44,10.66,0,17C5.5,498,11.12,499.83,13,500.36c8.93,2.51,18.28-.58,26-4.16,53.39-24.72,80-65.85,80-65.85A220.08,220.08,0,0,0,145.65,370c7.55-28.83,5-45.87,14.66-48.29,5.19-1.3,9.67,2.7,44,32.92,25.37,22.33,24.82,19.74,31.8,31.72,2.94,5,13.33,22.86,8.87,44-4,18.94-16.41,23.58-22.67,51-2,8.94-2.32,15.67,2.67,20.3s13.84,5.88,20.67,4.39c9-2,14-8.62,19.1-16.49,11.09-17.09,21-32.72,27.56-59.69,4.78-19.66,4-29.94,3.59-34.05A65.48,65.48,0,0,0,289,371.09c-4.06-7.8-8.28-11.82-22-25.34-33.25-32.76-26.53-26.91-32.67-32.5-20.46-18.62-23.6-20.83-27.33-28.85-5.37-11.56-4.83-22.36-4.54-28.08.51-10.08,3.06-11.45,7.2-29.76,5.21-23.07,4.71-29.77,8-30.18,5.55-.69,7.48,18.41,26.67,36.76,4.14,4,18.6,11.73,47.34,27.12,25.47,13.63,32.51,17,41.69,15.35,10.68-1.93,21.31-10.16,20.31-17-1.23-8.36-19-9-44-20.85-11.5-5.46-31.65-15-44.68-32.06-10.12-13.22-4.92-16.54-22.66-57.38-4.91-11.31-8.06-17.2-14-23.59-3.23-3.49-17.22-18.56-35.34-21.08-17.64-2.46-28.2,8.52-58.66,26.56-55.7,33-70.62,26-87.34,48.06-1.58,2.08-6.82,19.5-17.33,54.32C21.58,259.3,18.07,272.4,27,280c4.21,3.59,11.93,6.6,18.67,4.94C53.44,283,58,275.32,70.31,231.17c6.9-24.74,7.51-29.66,14.67-35.11C92.55,190.29,96,192.7,120.31,181.24Z"/>
            <circle fill="#fff" cx="229.19" cy="47" r="47"/>
        </g>
    </g>
</svg>