<?xml version="1.0" encoding="UTF-8" standalone="no"?>
<svg
   width="600"
   height="600"
   viewBox="0 0 600 600"
   version="1.1"
   id="svg123"
   sodipodi:docname="out.svg"
   xmlns:inkscape="http://www.inkscape.org/namespaces/inkscape"
   xmlns:sodipodi="http://sodipodi.sourceforge.net/DTD/sodipodi-0.dtd"
   xmlns="http://www.w3.org/2000/svg"
   xmlns:svg="http://www.w3.org/2000/svg">
  <sodipodi:namedview
     id="namedview125"
     pagecolor="#ffffff"
     bordercolor="#666666"
     borderopacity="1.0"
     inkscape:pageshadow="2"
     inkscape:pageopacity="0.0"
     inkscape:pagecheckerboard="0"
     showgrid="false" />
  <defs
     id="defs120">
    <style
       id="style113">
      .cls-1 {
        fill: #fbccff;
        stroke-width: 1px;
        fill-rule: evenodd;
        stroke: url(#linear-gradient);
      }
    </style>
    <linearGradient
       id="linear-gradient"
       x1="300"
       y1="550.594"
       x2="300"
       y2="49.406"
       gradientUnits="userSpaceOnUse">
      <stop
         offset="0"
         id="stop115" />
      <stop
         offset="1"
         stop-color="#fff"
         id="stop117" />
    </linearGradient>
  </defs>
  <path
     id="nuoli_1_kopio"
     data-name="nuoli 1 kopio"
     class="cls-1"
     d="m 275.705,305.955 c -26.057,-26.095 -96.2,39.616 -137.19,80.662 -40.99,41.046 -46.025,50.524 -46.025,50.524 0,0 -3.54,-16.881 -3.54,-45.206 0,-28.325 -5.52,-46.978 -29.208,-46.978 -23.688,0 -30.362,31.108 -30.979,49.637 -0.617,18.529 0.885,70.832 0.885,109.026 0,38.194 13.083,46.98 39.829,46.98 26.746,0 94.083,-0.887 130.109,-0.887 36.026,0 31.864,-26.994 31.864,-33.682 0,-6.688 -4.231,-34.57 -34.519,-34.57 -30.288,0 -59.3,-1.772 -59.3,-1.772 0,0 42.541,-40.831 63.727,-62.048 21.186,-21.217 40.99,-39.277 60.186,-58.5 19.196,-19.223 40.218,-27.091 14.161,-53.186 z m 48.605,-11.91 c 26.054,26.095 96.193,-39.616 137.175,-80.662 40.982,-41.046 46.02,-50.524 46.02,-50.524 0,0 3.54,16.881 3.54,45.206 0,28.325 5.52,46.978 29.206,46.978 23.686,0 30.358,-31.108 30.975,-49.637 0.617,-18.529 -0.885,-70.832 -0.885,-109.026 0,-38.194 -13.082,-46.98 -39.825,-46.98 -26.743,0 -94.074,0.886 -130.1,0.886 -36.026,0 -31.856,26.997 -31.856,33.684 0,6.687 4.23,34.57 34.515,34.57 30.285,0 59.3,1.772 59.3,1.772 0,0 -42.537,40.831 -63.72,62.048 -21.183,21.217 -40.986,39.277 -60.18,58.5 -19.194,19.223 -40.22,27.09 -14.165,53.185 z"
     style="stroke:url(#linear-gradient)" />
</svg>
