<svg xmlns="http://www.w3.org/2000/svg" xmlns:xlink="http://www.w3.org/1999/xlink" width="600" height="600" viewBox="0 0 600 600">
  <defs>
    <style>
      .cls-1 {
        fill: #fbccff;
        stroke-width: 1px;
        fill-rule: evenodd;
        stroke: url(#linear-gradient);
      }
    </style>
    <linearGradient id="linear-gradient" x1="279.297" y1="540.125" x2="279.297" y2="59.844" gradientUnits="userSpaceOnUse">
      <stop offset="0"/>
      <stop offset="1" stop-color="#fff"/>
    </linearGradient>
  </defs>
  <path id="Muoto_317_1" data-name="Muoto 317 1" class="cls-1" d="M426.816,295.984s-12.273.992-79.5,0.992c-57.235,0-50.2,63.519-.958,63.519,35.774,0,49.656-.992,58.431-0.992s106.324-1.207,106.324,87.339-71.345,93.293-189.66,93.293-145.6-3.97-145.6-3.97,14.976-15.518,30.652-34.737S218,476.616,218,476.616l210.734,2.978s27.778,5.544,27.778-28.782-26.821-33.745-26.821-33.745l-94.83.992s-82.377-.143-82.377-83.368,71.841-92.3,71.841-92.3h58.43s-4.752-2.76-31.61-53.594-2.6-87.619,23.947-115.129,86.351-10.091,113.988,18.857,18.771,77.886,4.789,111.158S426.816,295.984,426.816,295.984Zm0-178.648c-40.139,0-38.066,61.534-3.832,61.534S466.954,117.336,426.816,117.336ZM137.536,535.173S47.5,452.12,47.5,389.277c0-37.2,22.405-94.286,89.083-94.286,53.019,0,82.378,56.375,82.378,91.309s-10.537,49.624-10.537,49.624ZM133.7,356.525c-40.966,0-36.925,62.527-2.873,62.527S174.671,356.525,133.7,356.525Z"/>
</svg>
