<?xml version="1.0" standalone="no"?>
<!DOCTYPE svg PUBLIC "-//W3C//DTD SVG 20010904//EN"
 "http://www.w3.org/TR/2001/REC-SVG-20010904/DTD/svg10.dtd">
<svg version="1.0" xmlns="http://www.w3.org/2000/svg"
 width="512.000000pt" height="512.000000pt" viewBox="0 0 512.000000 512.000000"
 preserveAspectRatio="xMidYMid meet">
<metadata>
Created by potrace 1.14, written by Peter Selinger 2001-2017
</metadata>
<g transform="translate(0.000000,512.000000) scale(0.100000,-0.100000)"
fill="#000000" stroke="none">
<path d="M1760 5000 l0 -40 -40 0 -40 0 0 -40 0 -40 -80 0 -80 0 0 -40 0 -40
-40 0 -40 0 0 -40 0 -40 -40 0 -40 0 0 -40 0 -40 -40 0 -40 0 0 -40 0 -40 -40
0 -40 0 0 -40 0 -40 -80 0 -80 0 0 -40 0 -40 -40 0 -40 0 0 -40 0 -40 -40 0
-40 0 0 -1840 0 -1840 80 0 80 0 0 -40 0 -40 80 0 80 0 0 -40 0 -40 120 0 120
0 0 -40 0 -40 120 0 120 0 0 -40 0 -40 80 0 80 0 0 -40 0 -40 120 0 120 0 0
-40 0 -40 120 0 120 0 0 -40 0 -40 80 0 80 0 0 -40 0 -40 120 0 120 0 0 40 0
40 80 0 80 0 0 40 0 40 120 0 120 0 0 40 0 40 80 0 80 0 0 40 0 40 120 0 120
0 0 40 0 40 80 0 80 0 0 40 0 40 120 0 120 0 0 40 0 40 80 0 80 0 0 40 0 40
80 0 80 0 0 1880 0 1880 -80 0 -80 0 0 40 0 40 -160 0 -160 0 0 40 0 40 -160
0 -160 0 0 40 0 40 -120 0 -120 0 0 40 0 40 -160 0 -160 0 0 40 0 40 -160 0
-160 0 0 40 0 40 -160 0 -160 0 0 40 0 40 -160 0 -160 0 0 40 0 40 -80 0 -80
0 0 -40z m160 -80 l0 -40 160 0 160 0 0 -40 0 -40 160 0 160 0 0 -40 0 -40
160 0 160 0 0 -40 0 -40 160 0 160 0 0 -120 0 -120 -40 0 -40 0 0 -40 0 -40
-40 0 -40 0 0 -40 0 -40 -40 0 -40 0 0 -80 0 -80 -40 0 -40 0 0 -40 0 -40 -40
0 -40 0 0 -40 0 -40 -40 0 -40 0 0 -40 0 -40 -40 0 -40 0 0 -40 0 -40 -40 0
-40 0 0 -40 0 -40 -40 0 -40 0 0 40 0 40 -80 0 -80 0 0 40 0 40 -120 0 -120 0
0 40 0 40 -120 0 -120 0 0 40 0 40 -80 0 -80 0 0 40 0 40 -120 0 -120 0 0 40
0 40 -120 0 -120 0 0 40 0 40 -80 0 -80 0 0 80 0 80 80 0 80 0 0 40 0 40 40 0
40 0 0 40 0 40 40 0 40 0 0 40 0 40 40 0 40 0 0 40 0 40 40 0 40 0 0 40 0 40
80 0 80 0 0 40 0 40 40 0 40 0 0 40 0 40 80 0 80 0 0 -40z m2000 -1560 l0
-320 -80 0 -80 0 0 -40 0 -40 -120 0 -120 0 0 -40 0 -40 -80 0 -80 0 0 -40 0
-40 -120 0 -120 0 0 -40 0 -40 -80 0 -80 0 0 320 0 320 80 0 80 0 0 40 0 40
120 0 120 0 0 40 0 40 80 0 80 0 0 40 0 40 120 0 120 0 0 40 0 40 80 0 80 0 0
-320z"/>
<path d="M3600 3280 l0 -160 120 0 120 0 0 40 0 40 -80 0 -80 0 0 120 0 120
-40 0 -40 0 0 -160z"/>
<path d="M3200 3120 l0 -160 40 0 40 0 0 40 0 40 40 0 40 0 0 -40 0 -40 40 0
40 0 0 160 0 160 -40 0 -40 0 0 -80 0 -80 -40 0 -40 0 0 80 0 80 -40 0 -40 0
0 -160z"/>
</g>
</svg>
